<svg xmlns="http://www.w3.org/2000/svg" viewBox="0 0 960 520" role="img" aria-labelledby="title desc"><title id="title">PVC ceiling panel and trim detail</title><desc id="desc">An illustrative section shows PVC ceiling panels, a support frame, interlocking panel edges and an edge trim.</desc><rect width="960" height="520" rx="28" fill="#faf9f8"/><text x="58" y="70" fill="#111" font-family="Arial,sans-serif" font-size="28" font-weight="700">Check the panel, frame and edge trim</text><path d="M130 180h640v42H130z" fill="#e9e5e2" stroke="#111" stroke-width="4"/><path d="M180 222v138M370 222v138M560 222v138M750 222v138" stroke="#8c8580" stroke-width="12"/><path d="M130 360h640v65H130z" fill="#fff" stroke="#e85555" stroke-width="4"/><path d="M130 360v65M290 360v65M450 360v65M610 360v65M770 360v65" stroke="#ffb2a7" stroke-width="4"/><path d="M130 360h-28v65h28" fill="#ffe7e1" stroke="#e85555" stroke-width="4"/><text x="138" y="401" fill="#111" font-family="Arial,sans-serif" font-size="16">Panel joints</text><text x="343" y="283" fill="#111" font-family="Arial,sans-serif" font-size="16">Support frame</text><text x="90" y="456" fill="#111" font-family="Arial,sans-serif" font-size="16">Edge trim</text><text x="790" y="210" fill="#e85555" font-family="Arial,sans-serif" font-size="19" font-weight="700">VERIFY</text><text x="790" y="251" fill="#111" font-family="Arial,sans-serif" font-size="16">Product spec</text><text x="790" y="288" fill="#111" font-family="Arial,sans-serif" font-size="16">Care instructions</text><text x="790" y="325" fill="#111" font-family="Arial,sans-serif" font-size="16">Fixture cut-outs</text></svg>